<svg version="1.1" id="Layer_1" xmlns="http://www.w3.org/2000/svg" xmlns:xlink="http://www.w3.org/1999/xlink" x="0px" y="0px"
	 width="100%" viewBox="0 0 300 124" enable-background="new 0 0 300 124" xml:space="preserve">
<path fill="#A6C4B1" opacity="1.000000" stroke="none" 
	d="
M290.000000,125.000000 
	C228.645767,125.000000 167.291550,125.000000 105.406288,124.693718 
	C104.833931,124.183197 104.792595,123.978958 104.837372,123.584831 
	C104.923477,123.394943 105.014069,122.985764 105.010139,122.518021 
	C105.008835,82.704971 105.011459,43.359676 104.973175,3.807004 
	C104.932259,3.599631 104.777298,3.206740 104.643089,2.955637 
	C104.048782,2.375526 103.588692,2.046518 102.999451,1.555516 
	C102.870300,1.393523 103.000000,1.000000 103.000000,1.000000 
	C161.354233,1.000000 219.708450,1.000000 278.267639,1.359011 
	C281.954468,2.056994 285.436279,2.395965 289.081970,2.986577 
	C289.542145,3.503844 289.838531,3.769470 290.240784,4.491264 
	C290.266266,19.956446 290.185852,34.965462 290.001648,50.108681 
	C290.016479,50.522205 290.135071,50.801521 290.397217,51.102921 
	C290.540741,51.125000 290.544983,51.415470 290.394562,51.559761 
	C290.244141,51.704048 289.977905,52.024853 289.557465,52.006783 
	C287.732941,52.050510 286.328857,52.112305 284.903381,52.175041 
	C284.903381,58.789883 284.903381,64.988876 284.903381,71.454079 
	C286.345306,71.538460 287.611481,71.612556 289.050049,71.936317 
	C289.512543,72.464569 289.802612,72.743149 290.213745,73.475525 
	C290.266479,90.276245 290.198151,106.623184 289.998627,123.061035 
	C289.615784,123.397247 289.611115,123.668976 289.826416,124.234383 
	C289.866241,124.667755 289.933136,124.833878 290.000000,125.000000 
M193.946823,65.061974 
	C195.060455,65.112053 196.702469,64.744438 197.155121,65.317039 
	C197.731812,66.046501 197.063293,67.643898 197.452286,68.669685 
	C197.873428,69.780296 198.894073,70.663582 199.653244,71.646019 
	C200.202423,70.644264 201.196976,69.655426 201.226456,68.638603 
	C201.384094,63.202541 201.300797,57.759491 201.300797,52.197029 
	C191.497086,50.711075 194.830322,60.730148 190.552124,63.433144 
	C186.643005,60.342003 189.709656,51.048347 180.127090,52.146328 
	C180.127090,57.981503 179.995361,63.606670 180.249542,69.214348 
	C180.294846,70.213966 181.940613,71.141029 182.847382,72.101593 
	C183.294724,71.775887 183.742050,71.450180 184.189392,71.124466 
	C184.189392,67.143784 184.189392,63.163094 184.189392,59.182407 
	C184.433807,59.157372 184.678207,59.132336 184.922623,59.107304 
	C186.668045,63.284039 188.413483,67.460777 190.581253,72.648155 
	C191.905975,69.697716 192.768555,67.776558 193.946823,65.061974 
M154.232605,71.651840 
	C154.786530,70.633835 155.365036,69.628265 155.888351,68.594765 
	C156.590897,67.207314 157.250839,65.798279 157.972610,64.308617 
	C161.869080,66.256439 160.974182,72.928146 167.158340,71.225677 
	C165.691422,68.658592 164.488571,66.553627 163.072189,64.075005 
	C167.165298,62.291016 168.550705,58.891273 166.619308,55.457985 
	C163.195511,49.371731 157.241150,52.847275 151.939148,51.897045 
	C151.939148,58.223015 151.886673,63.854408 152.003677,69.482277 
	C152.018784,70.209061 152.911102,70.917610 154.232605,71.651840 
M258.016327,66.628838 
	C257.863068,67.610588 257.217133,68.994995 257.636810,69.508469 
	C260.285583,72.749260 268.708954,72.350761 271.220551,69.026039 
	C273.256287,66.331253 272.505371,62.645161 269.351593,61.026051 
	C267.605896,60.129837 265.532440,59.887264 263.740540,59.060165 
	C262.698120,58.579002 261.920380,57.524467 261.023529,56.727921 
	C262.220642,56.149734 263.385559,55.205746 264.623932,55.096821 
	C265.848724,54.989090 267.153473,56.021183 268.412231,55.996487 
	C269.423401,55.976646 270.418243,55.124634 272.181091,54.275406 
	C270.205627,53.198429 269.388458,52.611443 268.478180,52.280167 
	C263.461945,50.454586 257.927826,52.263409 257.181122,56.252625 
	C256.173889,61.633415 260.529846,62.166592 264.139252,63.477245 
	C265.706207,64.046249 266.948608,65.509033 268.338440,66.565865 
	C267.980682,67.272095 267.622894,67.978317 267.265137,68.684547 
	C264.401886,67.872993 261.538635,67.061440 258.016327,66.628838 
M131.433502,71.689743 
	C134.072388,70.612518 136.711258,69.535301 139.350128,68.458076 
	C139.120468,67.788193 138.890808,67.118301 138.661148,66.448418 
	C137.449600,66.663338 136.110764,66.619705 135.050400,67.141716 
	C131.885864,68.699585 128.373550,69.152267 126.769089,65.871803 
	C125.611626,63.505291 125.583626,59.611179 126.787270,57.303593 
	C128.414398,54.184109 131.916916,54.313461 135.125122,56.113426 
	C136.116730,56.669773 137.510239,56.509838 138.719727,56.677860 
	C138.880020,56.110573 139.040298,55.543289 139.200577,54.976002 
	C137.417175,53.954258 135.746185,52.558159 133.828842,51.982365 
	C128.505402,50.383690 122.683136,53.822468 121.367485,59.043976 
	C119.814903,65.205849 123.377289,70.057899 131.433502,71.689743 
M240.573273,66.183289 
	C240.573669,66.680237 240.413422,67.252045 240.603775,67.660477 
	C241.244629,69.035622 242.010193,70.352646 242.728043,71.691895 
	C243.339035,70.397003 244.407913,69.125954 244.476807,67.802834 
	C244.700455,63.507732 244.734665,59.181374 244.439651,54.894726 
	C244.359543,53.730682 242.860016,52.664326 242.011963,51.553131 
	C241.532379,51.833813 241.052795,52.114494 240.573212,52.395176 
	C240.573212,56.685238 240.573212,60.975304 240.573273,66.183289 
M219.601410,72.947792 
	C217.199677,73.070107 214.797928,73.192429 212.396194,73.314751 
	C212.436539,73.698982 212.476883,74.083221 212.517227,74.467453 
	C217.971909,74.467453 223.426605,74.467453 228.881302,74.467453 
	C228.901123,73.960899 228.920929,73.454338 228.940750,72.947784 
	C226.141708,72.947784 223.342682,72.947784 219.601410,72.947792 
z"/>
<path fill="#A6C5B1" opacity="1.000000" stroke="none" 
	d="
M104.751266,123.774719 
	C104.792595,123.978958 104.833931,124.183197 104.937630,124.693718 
	C71.312439,125.000000 37.624878,125.000000 3.349959,124.685379 
	C2.175068,123.580498 1.587533,122.790253 0.999999,122.000000 
	C1.000000,82.645775 1.000000,43.291542 1.163250,3.377870 
	C1.217667,2.545617 1.108833,2.272808 1.000000,2.000000 
	C2.326081,1.666667 3.651666,1.044582 4.978315,1.042305 
	C36.673038,0.987914 68.367867,1.000000 100.632431,1.266195 
	C101.458359,2.019413 101.714539,2.506437 102.011002,3.425682 
	C102.003609,5.591623 101.955933,7.325342 101.681061,9.396891 
	C101.305809,10.713932 101.029030,11.693051 101.028328,12.672371 
	C101.004707,45.662334 100.996056,78.652336 101.044411,111.642250 
	C101.046509,113.075562 101.607567,114.508049 101.970764,116.373260 
	C101.993996,118.549622 101.954727,120.293640 101.809784,122.139420 
	C101.557289,122.526619 101.613785,122.782043 102.130341,123.213531 
	C102.603958,123.453354 102.820831,123.487091 103.251419,123.571075 
	C103.893837,123.672455 104.322556,123.723587 104.751266,123.774719 
M7.942474,7.935972 
	C7.942474,7.935972 7.816725,7.937503 7.142004,8.318907 
	C6.762405,9.857851 6.054492,11.396162 6.051529,12.935832 
	C5.987894,45.998009 5.980917,79.060402 6.070037,112.122459 
	C6.074406,113.743362 7.052820,115.361641 8.195559,117.643044 
	C36.919418,117.720238 65.643272,117.804161 94.367188,117.836533 
	C95.098206,117.837357 95.829865,117.271782 97.155632,116.542702 
	C97.434151,115.456245 97.954651,114.370110 97.956055,113.283295 
	C97.999512,79.591263 98.013405,45.899105 97.919624,12.207278 
	C97.915634,10.776672 96.840942,9.349047 96.085930,7.937547 
	C96.085930,7.937547 96.076057,7.757852 95.675308,7.098815 
	C94.292503,6.733990 92.910461,6.054284 91.526787,6.050952 
	C65.241203,5.987653 38.955307,5.972939 12.670021,6.081278 
	C11.089197,6.087794 9.512964,7.208307 7.942474,7.935972 
z"/>
<path fill="#070908" opacity="1.000000" stroke="none" 
	d="
M290.129822,122.970116 
	C290.198151,106.623184 290.266479,90.276245 290.328247,73.214035 
	C290.399139,72.324921 290.476562,72.151077 290.701172,71.636574 
	C290.907562,69.282150 290.966766,67.268394 291.403198,65.120239 
	C294.853638,63.990570 297.926819,62.995289 301.000000,62.000000 
	C301.000000,83.000046 301.000000,104.000092 301.000000,125.000000 
	C297.590332,125.000000 294.278107,125.000000 290.482971,125.000000 
	C289.933136,124.833878 289.866241,124.667755 290.022522,124.020340 
	C290.207001,123.349396 290.168396,123.159760 290.129822,122.970116 
z"/>
<path fill="#060706" opacity="1.000000" stroke="none" 
	d="
M290.544983,51.415474 
	C290.544983,51.415470 290.540741,51.125000 290.414246,50.818977 
	C290.226959,50.333458 290.166168,50.153969 290.105408,49.974476 
	C290.185852,34.965462 290.266266,19.956446 290.253723,4.116285 
	C289.746552,3.101738 289.332336,2.918337 288.918121,2.734936 
	C285.436279,2.395965 281.954468,2.056994 278.736328,1.359011 
	C286.290283,1.000000 293.580566,1.000000 301.000000,1.000000 
	C301.000000,18.354042 301.000000,35.708363 300.753326,53.916615 
	C297.186096,53.652187 293.865540,52.533829 290.544983,51.415474 
z"/>
<path fill="#9FBDAA" opacity="1.000000" stroke="none" 
	d="
M290.394562,51.559761 
	C293.865540,52.533829 297.186096,53.652187 300.753326,54.385273 
	C301.000000,56.370556 301.000000,58.741116 301.000000,61.555840 
	C297.926819,62.995289 294.853638,63.990570 291.019043,64.964203 
	C290.067871,63.607899 289.878082,62.273247 290.055695,60.760689 
	C292.157776,59.668133 293.892456,58.753483 295.627167,57.838833 
	C293.864227,57.266155 292.119171,56.624237 290.327942,56.160851 
	C289.752960,56.012093 289.056000,56.334736 288.726135,56.168118 
	C289.350891,54.604637 289.664398,53.314747 289.977905,52.024857 
	C289.977905,52.024853 290.244141,51.704048 290.394562,51.559761 
z"/>
<path fill="#B3D3BF" opacity="1.000000" stroke="none" 
	d="
M1.000001,122.500000 
	C1.587533,122.790253 2.175068,123.580498 2.881303,124.685379 
	C2.333337,124.333328 1.666670,123.666664 1.000001,122.500000 
z"/>
<path fill="#B3D3BF" opacity="1.000000" stroke="none" 
	d="
M101.970726,2.993460 
	C101.714539,2.506437 101.458359,2.019413 101.101089,1.266195 
	C101.444443,1.000000 101.888893,1.000000 102.666672,1.000000 
	C103.000000,1.000000 102.870300,1.393523 102.889557,1.579469 
	C102.908821,1.765415 102.928543,1.989477 102.631630,1.903202 
	C102.213387,2.209105 102.092056,2.601282 101.970726,2.993460 
z"/>
<path fill="#B3D3BF" opacity="1.000000" stroke="none" 
	d="
M1.000000,2.250000 
	C1.108833,2.272808 1.217667,2.545617 1.163250,2.909213 
	C1.000000,3.000000 1.000000,2.500000 1.000000,2.250000 
z"/>
<path fill="#111412" opacity="1.000000" stroke="none" 
	d="
M193.788971,65.458694 
	C192.768555,67.776558 191.905975,69.697716 190.581253,72.648155 
	C188.413483,67.460777 186.668045,63.284039 184.922623,59.107304 
	C184.678207,59.132336 184.433807,59.157372 184.189392,59.182407 
	C184.189392,63.163094 184.189392,67.143784 184.189392,71.124466 
	C183.742050,71.450180 183.294724,71.775887 182.847382,72.101593 
	C181.940613,71.141029 180.294846,70.213966 180.249542,69.214348 
	C179.995361,63.606670 180.127090,57.981503 180.127090,52.146328 
	C189.709656,51.048347 186.643005,60.342003 190.552124,63.433144 
	C194.830322,60.730148 191.497086,50.711075 201.300797,52.197029 
	C201.300797,57.759491 201.384094,63.202541 201.226456,68.638603 
	C201.196976,69.655426 200.202423,70.644264 199.653244,71.646019 
	C198.894073,70.663582 197.873428,69.780296 197.452286,68.669685 
	C197.063293,67.643898 197.731812,66.046501 197.155121,65.317039 
	C196.702469,64.744438 195.060455,65.112053 193.788971,65.458694 
z"/>
<path fill="#0E100F" opacity="1.000000" stroke="none" 
	d="
M153.814835,71.643227 
	C152.911102,70.917610 152.018784,70.209061 152.003677,69.482277 
	C151.886673,63.854408 151.939148,58.223015 151.939148,51.897045 
	C157.241150,52.847275 163.195511,49.371731 166.619308,55.457985 
	C168.550705,58.891273 167.165298,62.291016 163.072189,64.075005 
	C164.488571,66.553627 165.691422,68.658592 167.158340,71.225677 
	C160.974182,72.928146 161.869080,66.256439 157.972610,64.308617 
	C157.250839,65.798279 156.590897,67.207314 155.888351,68.594765 
	C155.365036,69.628265 154.786530,70.633835 153.814835,71.643227 
M155.879044,58.593956 
	C155.780243,62.515430 158.787582,60.980476 160.461502,60.839420 
	C161.490326,60.752735 162.848938,59.275410 163.176086,58.162788 
	C163.371063,57.499565 161.832489,55.529289 161.113831,55.550072 
	C159.245392,55.604103 156.122162,53.545731 155.879044,58.593956 
z"/>
<path fill="#101211" opacity="1.000000" stroke="none" 
	d="
M258.345856,66.439362 
	C261.538635,67.061440 264.401886,67.872993 267.265137,68.684547 
	C267.622894,67.978317 267.980682,67.272095 268.338440,66.565865 
	C266.948608,65.509033 265.706207,64.046249 264.139252,63.477245 
	C260.529846,62.166592 256.173889,61.633415 257.181122,56.252625 
	C257.927826,52.263409 263.461945,50.454586 268.478180,52.280167 
	C269.388458,52.611443 270.205627,53.198429 272.181091,54.275406 
	C270.418243,55.124634 269.423401,55.976646 268.412231,55.996487 
	C267.153473,56.021183 265.848724,54.989090 264.623932,55.096821 
	C263.385559,55.205746 262.220642,56.149734 261.023529,56.727921 
	C261.920380,57.524467 262.698120,58.579002 263.740540,59.060165 
	C265.532440,59.887264 267.605896,60.129837 269.351593,61.026051 
	C272.505371,62.645161 273.256287,66.331253 271.220551,69.026039 
	C268.708954,72.350761 260.285583,72.749260 257.636810,69.508469 
	C257.217133,68.994995 257.863068,67.610588 258.345856,66.439362 
z"/>
<path fill="#101211" opacity="1.000000" stroke="none" 
	d="
M131.041016,71.687325 
	C123.377289,70.057899 119.814903,65.205849 121.367485,59.043976 
	C122.683136,53.822468 128.505402,50.383690 133.828842,51.982365 
	C135.746185,52.558159 137.417175,53.954258 139.200577,54.976002 
	C139.040298,55.543289 138.880020,56.110573 138.719727,56.677860 
	C137.510239,56.509838 136.116730,56.669773 135.125122,56.113426 
	C131.916916,54.313461 128.414398,54.184109 126.787270,57.303593 
	C125.583626,59.611179 125.611626,63.505291 126.769089,65.871803 
	C128.373550,69.152267 131.885864,68.699585 135.050400,67.141716 
	C136.110764,66.619705 137.449600,66.663338 138.661148,66.448418 
	C138.890808,67.118301 139.120468,67.788193 139.350128,68.458076 
	C136.711258,69.535301 134.072388,70.612518 131.041016,71.687325 
z"/>
<path fill="#ADCDB9" opacity="1.000000" stroke="none" 
	d="
M105.014084,4.014377 
	C105.011459,43.359676 105.008835,82.704971 104.697342,122.500381 
	C104.180267,122.935211 103.972061,122.919922 103.736511,122.443718 
	C103.726990,82.682381 103.744812,43.381958 104.075363,4.062331 
	C104.596764,4.033544 104.805428,4.023960 105.014084,4.014377 
z"/>
<path fill="#151917" opacity="1.000000" stroke="none" 
	d="
M289.688324,60.938599 
	C289.878082,62.273247 290.067871,63.607899 290.641785,65.098587 
	C290.966766,67.268394 290.907562,69.282150 290.296509,71.480209 
	C289.455658,71.671890 289.166656,71.679276 288.877655,71.686653 
	C287.611481,71.612556 286.345306,71.538460 284.903381,71.454079 
	C284.903381,64.988876 284.903381,58.789883 284.903381,52.175041 
	C286.328857,52.112305 287.732941,52.050510 289.557495,52.006783 
	C289.664398,53.314747 289.350891,54.604637 288.618805,56.417835 
	C288.696259,58.273628 289.192291,59.606113 289.688324,60.938599 
z"/>
<path fill="#1A1E1B" opacity="1.000000" stroke="none" 
	d="
M240.573242,65.724327 
	C240.573212,60.975304 240.573212,56.685238 240.573212,52.395176 
	C241.052795,52.114494 241.532379,51.833813 242.011963,51.553131 
	C242.860016,52.664326 244.359543,53.730682 244.439651,54.894726 
	C244.734665,59.181374 244.700455,63.507732 244.476807,67.802834 
	C244.407913,69.125954 243.339035,70.397003 242.728058,71.691895 
	C242.010193,70.352646 241.244629,69.035622 240.603775,67.660477 
	C240.413422,67.252045 240.573669,66.680237 240.573242,65.724327 
z"/>
<path fill="#0E100F" opacity="1.000000" stroke="none" 
	d="
M220.072525,72.947784 
	C223.342682,72.947784 226.141708,72.947784 228.940750,72.947784 
	C228.920929,73.454338 228.901123,73.960899 228.881302,74.467453 
	C223.426605,74.467453 217.971909,74.467453 212.517227,74.467453 
	C212.476883,74.083221 212.436539,73.698982 212.396194,73.314751 
	C214.797928,73.192429 217.199677,73.070107 220.072525,72.947784 
z"/>
<path fill="#A6C5B1" opacity="1.000000" stroke="none" 
	d="
M103.018707,1.741462 
	C103.588692,2.046518 104.048782,2.375526 104.429741,2.929497 
	C104.060020,3.154116 103.774025,3.117700 103.562576,2.668544 
	C103.397865,2.191077 103.163200,2.090276 102.928543,1.989477 
	C102.928543,1.989477 102.908821,1.765415 103.018707,1.741462 
z"/>
<path fill="#B3D3BF" opacity="1.000000" stroke="none" 
	d="
M103.492615,3.045212 
	C103.774025,3.117700 104.060020,3.154116 104.563950,3.180599 
	C104.777298,3.206740 104.932259,3.599631 104.973175,3.807004 
	C104.805428,4.023960 104.596764,4.033544 103.965225,3.912890 
	C103.468872,3.540682 103.452293,3.294868 103.492615,3.045212 
z"/>
<path fill="#B3D3BF" opacity="1.000000" stroke="none" 
	d="
M103.763863,122.904633 
	C103.972061,122.919922 104.180267,122.935211 104.701271,122.968132 
	C105.014069,122.985764 104.923477,123.394943 104.837372,123.584824 
	C104.322556,123.723587 103.893837,123.672455 103.427933,123.411179 
	C103.390747,123.201042 103.763863,122.904633 103.763863,122.904633 
z"/>
<path fill="#B3D3BF" opacity="1.000000" stroke="none" 
	d="
M289.081970,2.986577 
	C289.332336,2.918337 289.746552,3.101738 290.147827,3.660118 
	C289.838531,3.769470 289.542145,3.503844 289.081970,2.986577 
z"/>
<path fill="#B3D3BF" opacity="1.000000" stroke="none" 
	d="
M290.001648,50.108681 
	C290.166168,50.153969 290.226959,50.333458 290.270691,50.796898 
	C290.135071,50.801521 290.016479,50.522205 290.001648,50.108681 
z"/>
<path fill="#B3D3BF" opacity="1.000000" stroke="none" 
	d="
M289.050049,71.936317 
	C289.166656,71.679276 289.455658,71.671890 290.149292,71.820877 
	C290.476562,72.151077 290.399139,72.324921 290.207184,72.760246 
	C289.802612,72.743149 289.512543,72.464569 289.050049,71.936317 
z"/>
<path fill="#B3D3BF" opacity="1.000000" stroke="none" 
	d="
M289.998657,123.061035 
	C290.168396,123.159760 290.207001,123.349396 290.049561,123.753082 
	C289.611115,123.668976 289.615784,123.397247 289.998657,123.061035 
z"/>
<path fill="#000000" opacity="1.000000" stroke="none" 
	d="
M96.561226,116.970367 
	C95.829865,117.271782 95.098206,117.837357 94.367188,117.836533 
	C65.643272,117.804161 36.919418,117.720238 7.964588,116.850471 
	C7.761321,80.017769 7.789022,43.977634 7.816725,7.937503 
	C7.816725,7.937503 7.942474,7.935972 8.410460,7.840468 
	C37.944317,7.749260 67.010185,7.753556 96.076057,7.757852 
	C96.076057,7.757852 96.085930,7.937547 96.206223,8.401800 
	C96.332199,24.810469 96.312981,40.754944 96.349869,56.699287 
	C96.396362,76.789703 96.488678,96.880013 96.561226,116.970367 
z"/>
<path fill="#607268" opacity="1.000000" stroke="none" 
	d="
M103.736511,122.443718 
	C103.763863,122.904633 103.390747,123.201042 103.214226,123.360931 
	C102.820831,123.487091 102.603958,123.453354 102.170586,122.972374 
	C101.954086,122.525124 101.915459,122.037659 101.915459,122.037659 
	C101.954727,120.293640 101.993996,118.549622 102.012573,115.911224 
	C101.964012,79.697586 101.936134,44.378323 101.908257,9.059061 
	C101.955933,7.325342 102.003609,5.591623 102.011002,3.425682 
	C102.092056,2.601282 102.213387,2.209105 102.631630,1.903202 
	C103.163200,2.090276 103.397865,2.191077 103.562576,2.668544 
	C103.452293,3.294868 103.468872,3.540682 103.652489,3.932095 
	C103.744812,43.381958 103.726990,82.682381 103.736511,122.443718 
z"/>
<path fill="#B3D3BF" opacity="1.000000" stroke="none" 
	d="
M96.858429,116.756531 
	C96.488678,96.880013 96.396362,76.789703 96.349869,56.699287 
	C96.312981,40.754944 96.332199,24.810469 96.295776,8.393043 
	C96.840942,9.349047 97.915634,10.776672 97.919624,12.207278 
	C98.013405,45.899105 97.999512,79.591263 97.956055,113.283295 
	C97.954651,114.370110 97.434151,115.456245 96.858429,116.756531 
z"/>
<path fill="#B0D0BC" opacity="1.000000" stroke="none" 
	d="
M7.479364,8.128205 
	C7.789022,43.977634 7.761321,80.017769 7.655643,116.519516 
	C7.052820,115.361641 6.074406,113.743362 6.070037,112.122459 
	C5.980917,79.060402 5.987894,45.998009 6.051529,12.935832 
	C6.054492,11.396162 6.762405,9.857851 7.479364,8.128205 
z"/>
<path fill="#B0D0BC" opacity="1.000000" stroke="none" 
	d="
M95.875687,7.428333 
	C67.010185,7.753556 37.944317,7.749260 8.406521,7.777713 
	C9.512964,7.208307 11.089197,6.087794 12.670021,6.081278 
	C38.955307,5.972939 65.241203,5.987653 91.526787,6.050952 
	C92.910461,6.054284 94.292503,6.733990 95.875687,7.428333 
z"/>
<path fill="#B3D3BF" opacity="1.000000" stroke="none" 
	d="
M101.681061,9.396891 
	C101.936134,44.378323 101.964012,79.697586 101.950073,115.478882 
	C101.607567,114.508049 101.046509,113.075562 101.044411,111.642250 
	C100.996056,78.652336 101.004707,45.662334 101.028328,12.672371 
	C101.029030,11.693051 101.305809,10.713932 101.681061,9.396891 
z"/>
<path fill="#B3D3BF" opacity="1.000000" stroke="none" 
	d="
M101.809784,122.139420 
	C101.915459,122.037659 101.954086,122.525124 101.913849,122.766281 
	C101.613785,122.782043 101.557289,122.526619 101.809784,122.139420 
z"/>
<path fill="#1A1E1B" opacity="1.000000" stroke="none" 
	d="
M290.055695,60.760693 
	C289.192291,59.606113 288.696259,58.273628 288.307556,56.691425 
	C289.056000,56.334736 289.752960,56.012093 290.327942,56.160851 
	C292.119171,56.624237 293.864227,57.266155 295.627167,57.838833 
	C293.892456,58.753483 292.157776,59.668133 290.055695,60.760693 
z"/>
<path fill="#9FBDAA" opacity="1.000000" stroke="none" 
	d="
M155.878479,58.150642 
	C156.122162,53.545731 159.245392,55.604103 161.113831,55.550072 
	C161.832489,55.529289 163.371063,57.499565 163.176086,58.162788 
	C162.848938,59.275410 161.490326,60.752735 160.461502,60.839420 
	C158.787582,60.980476 155.780243,62.515430 155.878479,58.150642 
z"/>
</svg>